<mxfile host="app.diagrams.net" modified="2024-07-06T15:51:39.362Z" agent="Mozilla/5.0 (Windows NT 10.0; Win64; x64) AppleWebKit/537.36 (KHTML, like Gecko) Chrome/126.0.0.0 Safari/537.36" etag="EK4leAl7RS9hvRZ0Gj0p" version="24.2.0" type="device">
  <diagram name="Page-1" id="Cf7E5TTTrloypjkVeYG1">
    <mxGraphModel dx="5457" dy="780" grid="1" gridSize="10" guides="1" tooltips="1" connect="1" arrows="1" fold="1" page="1" pageScale="1" pageWidth="1400" pageHeight="850" math="0" shadow="0">
      <root>
        <mxCell id="0" />
        <mxCell id="1" parent="0" />
        <mxCell id="t6kp-nXmJAoZF-2iTOLA-1" value="HOME" style="rounded=1;whiteSpace=wrap;html=1;fillColor=#f9f7ed;strokeColor=#36393d;fontSize=19;fontStyle=1" parent="1" vertex="1">
          <mxGeometry x="-3630" y="280" width="120" height="60" as="geometry" />
        </mxCell>
        <mxCell id="t6kp-nXmJAoZF-2iTOLA-2" value="" style="endArrow=none;html=1;rounded=0;exitX=0.5;exitY=1;exitDx=0;exitDy=0;" parent="1" source="t6kp-nXmJAoZF-2iTOLA-1" edge="1">
          <mxGeometry width="50" height="50" relative="1" as="geometry">
            <mxPoint x="-3540" y="340" as="sourcePoint" />
            <mxPoint x="-3570" y="390" as="targetPoint" />
          </mxGeometry>
        </mxCell>
        <mxCell id="t6kp-nXmJAoZF-2iTOLA-3" value="" style="endArrow=none;html=1;rounded=0;" parent="1" edge="1">
          <mxGeometry width="50" height="50" relative="1" as="geometry">
            <mxPoint x="-4020" y="390" as="sourcePoint" />
            <mxPoint x="-3410" y="390" as="targetPoint" />
          </mxGeometry>
        </mxCell>
        <mxCell id="t6kp-nXmJAoZF-2iTOLA-4" value="" style="endArrow=none;html=1;rounded=0;" parent="1" edge="1">
          <mxGeometry width="50" height="50" relative="1" as="geometry">
            <mxPoint x="-4020.42" y="390" as="sourcePoint" />
            <mxPoint x="-4020.42" y="430" as="targetPoint" />
          </mxGeometry>
        </mxCell>
        <mxCell id="t6kp-nXmJAoZF-2iTOLA-5" value="RICETTE" style="rounded=1;whiteSpace=wrap;html=1;fillColor=#cdeb8b;strokeColor=#36393d;fontSize=19;fontStyle=1" parent="1" vertex="1">
          <mxGeometry x="-4080" y="430" width="120" height="60" as="geometry" />
        </mxCell>
        <mxCell id="t6kp-nXmJAoZF-2iTOLA-6" value="STORE" style="rounded=1;whiteSpace=wrap;html=1;fillColor=#008a00;strokeColor=#005700;fontColor=#ffffff;fontSize=19;fontStyle=1" parent="1" vertex="1">
          <mxGeometry x="-3825" y="430" width="120" height="60" as="geometry" />
        </mxCell>
        <mxCell id="t6kp-nXmJAoZF-2iTOLA-7" value="AZIENDA" style="rounded=1;whiteSpace=wrap;html=1;fillColor=#f0a30a;strokeColor=#BD7000;fontColor=#000000;fontSize=19;fontStyle=1" parent="1" vertex="1">
          <mxGeometry x="-3470" y="420" width="120" height="60" as="geometry" />
        </mxCell>
        <mxCell id="t6kp-nXmJAoZF-2iTOLA-8" value="" style="endArrow=none;html=1;rounded=0;exitX=0.5;exitY=0;exitDx=0;exitDy=0;" parent="1" source="t6kp-nXmJAoZF-2iTOLA-7" edge="1">
          <mxGeometry width="50" height="50" relative="1" as="geometry">
            <mxPoint x="-3550" y="430" as="sourcePoint" />
            <mxPoint x="-3410" y="390" as="targetPoint" />
          </mxGeometry>
        </mxCell>
        <mxCell id="t6kp-nXmJAoZF-2iTOLA-9" value="" style="endArrow=none;html=1;rounded=0;entryX=0.5;entryY=0;entryDx=0;entryDy=0;" parent="1" target="t6kp-nXmJAoZF-2iTOLA-6" edge="1">
          <mxGeometry width="50" height="50" relative="1" as="geometry">
            <mxPoint x="-3765" y="390" as="sourcePoint" />
            <mxPoint x="-3630" y="290" as="targetPoint" />
          </mxGeometry>
        </mxCell>
        <mxCell id="t6kp-nXmJAoZF-2iTOLA-21" value="" style="endArrow=none;html=1;rounded=0;exitX=0.5;exitY=0;exitDx=0;exitDy=0;" parent="1" edge="1" source="DRDF23SqJuh-08uPQttx-1">
          <mxGeometry width="50" height="50" relative="1" as="geometry">
            <mxPoint x="-3775.17" y="630" as="sourcePoint" />
            <mxPoint x="-3775.59" y="490" as="targetPoint" />
          </mxGeometry>
        </mxCell>
        <mxCell id="t6kp-nXmJAoZF-2iTOLA-22" value="" style="endArrow=none;html=1;rounded=0;" parent="1" edge="1">
          <mxGeometry width="50" height="50" relative="1" as="geometry">
            <mxPoint x="-3935" y="510" as="sourcePoint" />
            <mxPoint x="-3625" y="510" as="targetPoint" />
          </mxGeometry>
        </mxCell>
        <mxCell id="t6kp-nXmJAoZF-2iTOLA-23" value="" style="endArrow=none;html=1;rounded=0;" parent="1" edge="1">
          <mxGeometry width="50" height="50" relative="1" as="geometry">
            <mxPoint x="-3935" y="540" as="sourcePoint" />
            <mxPoint x="-3935" y="510" as="targetPoint" />
            <Array as="points" />
          </mxGeometry>
        </mxCell>
        <mxCell id="t6kp-nXmJAoZF-2iTOLA-24" value="" style="endArrow=none;html=1;rounded=0;" parent="1" edge="1">
          <mxGeometry width="50" height="50" relative="1" as="geometry">
            <mxPoint x="-3625" y="540" as="sourcePoint" />
            <mxPoint x="-3625" y="510" as="targetPoint" />
            <Array as="points" />
          </mxGeometry>
        </mxCell>
        <mxCell id="t6kp-nXmJAoZF-2iTOLA-25" value="Cometici" style="rounded=1;whiteSpace=wrap;html=1;fillColor=#ffcc99;strokeColor=#36393d;fontSize=24;" parent="1" vertex="1">
          <mxGeometry x="-3685" y="540" width="120" height="60" as="geometry" />
        </mxCell>
        <mxCell id="t6kp-nXmJAoZF-2iTOLA-26" value="Olio" style="rounded=1;whiteSpace=wrap;html=1;fillColor=#cdeb8b;strokeColor=#36393d;fontSize=24;" parent="1" vertex="1">
          <mxGeometry x="-4000" y="540" width="120" height="60" as="geometry" />
        </mxCell>
        <mxCell id="t6kp-nXmJAoZF-2iTOLA-28" value="" style="endArrow=none;html=1;rounded=0;" parent="1" edge="1">
          <mxGeometry width="50" height="50" relative="1" as="geometry">
            <mxPoint x="-3490" y="510" as="sourcePoint" />
            <mxPoint x="-3330" y="510" as="targetPoint" />
          </mxGeometry>
        </mxCell>
        <mxCell id="t6kp-nXmJAoZF-2iTOLA-29" value="" style="endArrow=none;html=1;rounded=0;" parent="1" edge="1">
          <mxGeometry width="50" height="50" relative="1" as="geometry">
            <mxPoint x="-3490" y="540" as="sourcePoint" />
            <mxPoint x="-3490" y="510" as="targetPoint" />
            <Array as="points" />
          </mxGeometry>
        </mxCell>
        <mxCell id="t6kp-nXmJAoZF-2iTOLA-30" value="" style="endArrow=none;html=1;rounded=0;" parent="1" edge="1">
          <mxGeometry width="50" height="50" relative="1" as="geometry">
            <mxPoint x="-3330.59" y="540" as="sourcePoint" />
            <mxPoint x="-3330.59" y="510" as="targetPoint" />
            <Array as="points" />
          </mxGeometry>
        </mxCell>
        <mxCell id="t6kp-nXmJAoZF-2iTOLA-31" value="Contatti" style="rounded=1;whiteSpace=wrap;html=1;fillColor=#cdeb8b;strokeColor=#36393d;fontSize=24;" parent="1" vertex="1">
          <mxGeometry x="-3390" y="540" width="120" height="60" as="geometry" />
        </mxCell>
        <mxCell id="t6kp-nXmJAoZF-2iTOLA-32" value="About Us" style="rounded=1;whiteSpace=wrap;html=1;fillColor=#ffcc99;strokeColor=#36393d;fontSize=24;" parent="1" vertex="1">
          <mxGeometry x="-3550" y="540" width="120" height="60" as="geometry" />
        </mxCell>
        <mxCell id="t6kp-nXmJAoZF-2iTOLA-38" value="" style="endArrow=none;html=1;rounded=0;entryX=0.5;entryY=1;entryDx=0;entryDy=0;" parent="1" target="t6kp-nXmJAoZF-2iTOLA-7" edge="1">
          <mxGeometry width="50" height="50" relative="1" as="geometry">
            <mxPoint x="-3410" y="510" as="sourcePoint" />
            <mxPoint x="-3690" y="430" as="targetPoint" />
          </mxGeometry>
        </mxCell>
        <mxCell id="DRDF23SqJuh-08uPQttx-1" value="Olio Aromatizzato" style="rounded=1;whiteSpace=wrap;html=1;fillColor=#ffe6cc;strokeColor=#d79b00;fontSize=18;" vertex="1" parent="1">
          <mxGeometry x="-3835" y="540" width="120" height="60" as="geometry" />
        </mxCell>
        <mxCell id="DRDF23SqJuh-08uPQttx-3" value="UTENTE" style="rounded=1;whiteSpace=wrap;html=1;fillColor=#d5e8d4;strokeColor=#82b366;fontSize=19;fontStyle=1" vertex="1" parent="1">
          <mxGeometry x="-3250" y="420" width="120" height="60" as="geometry" />
        </mxCell>
        <mxCell id="DRDF23SqJuh-08uPQttx-7" value="Ordini" style="rounded=1;whiteSpace=wrap;html=1;fillColor=#cdeb8b;strokeColor=#36393d;fontSize=24;" vertex="1" parent="1">
          <mxGeometry x="-3200" y="500" width="120" height="60" as="geometry" />
        </mxCell>
        <mxCell id="DRDF23SqJuh-08uPQttx-8" value="Preferiti" style="rounded=1;whiteSpace=wrap;html=1;fillColor=#ffcc99;strokeColor=#36393d;fontSize=24;" vertex="1" parent="1">
          <mxGeometry x="-3200" y="580" width="120" height="60" as="geometry" />
        </mxCell>
        <mxCell id="DRDF23SqJuh-08uPQttx-10" value="" style="endArrow=none;html=1;rounded=0;entryX=0.5;entryY=1;entryDx=0;entryDy=0;" edge="1" parent="1">
          <mxGeometry width="50" height="50" relative="1" as="geometry">
            <mxPoint x="-3240" y="690" as="sourcePoint" />
            <mxPoint x="-3240" y="480" as="targetPoint" />
          </mxGeometry>
        </mxCell>
        <mxCell id="DRDF23SqJuh-08uPQttx-11" value="Account" style="rounded=1;whiteSpace=wrap;html=1;fillColor=#f8cecc;strokeColor=#b85450;fontSize=24;" vertex="1" parent="1">
          <mxGeometry x="-3200" y="660" width="120" height="60" as="geometry" />
        </mxCell>
        <mxCell id="DRDF23SqJuh-08uPQttx-12" value="" style="endArrow=none;html=1;rounded=0;entryX=0;entryY=0.5;entryDx=0;entryDy=0;" edge="1" parent="1" target="DRDF23SqJuh-08uPQttx-7">
          <mxGeometry width="50" height="50" relative="1" as="geometry">
            <mxPoint x="-3240" y="530" as="sourcePoint" />
            <mxPoint x="-3240" y="570" as="targetPoint" />
          </mxGeometry>
        </mxCell>
        <mxCell id="DRDF23SqJuh-08uPQttx-13" value="" style="endArrow=none;html=1;rounded=0;entryX=0;entryY=0.5;entryDx=0;entryDy=0;" edge="1" parent="1">
          <mxGeometry width="50" height="50" relative="1" as="geometry">
            <mxPoint x="-3240" y="609.75" as="sourcePoint" />
            <mxPoint x="-3200" y="609.75" as="targetPoint" />
          </mxGeometry>
        </mxCell>
        <mxCell id="DRDF23SqJuh-08uPQttx-14" value="" style="endArrow=none;html=1;rounded=0;entryX=0;entryY=0.5;entryDx=0;entryDy=0;" edge="1" parent="1">
          <mxGeometry width="50" height="50" relative="1" as="geometry">
            <mxPoint x="-3240" y="689.75" as="sourcePoint" />
            <mxPoint x="-3200" y="689.75" as="targetPoint" />
          </mxGeometry>
        </mxCell>
        <mxCell id="DRDF23SqJuh-08uPQttx-15" value="" style="endArrow=none;html=1;rounded=0;" edge="1" parent="1">
          <mxGeometry width="50" height="50" relative="1" as="geometry">
            <mxPoint x="-3410" y="390" as="sourcePoint" />
            <mxPoint x="-3200" y="390" as="targetPoint" />
          </mxGeometry>
        </mxCell>
        <mxCell id="DRDF23SqJuh-08uPQttx-16" value="" style="endArrow=none;html=1;rounded=0;entryX=0.417;entryY=-0.051;entryDx=0;entryDy=0;entryPerimeter=0;" edge="1" parent="1" target="DRDF23SqJuh-08uPQttx-3">
          <mxGeometry width="50" height="50" relative="1" as="geometry">
            <mxPoint x="-3200" y="390" as="sourcePoint" />
            <mxPoint x="-3160" y="390" as="targetPoint" />
          </mxGeometry>
        </mxCell>
        <mxCell id="DRDF23SqJuh-08uPQttx-19" value="" style="endArrow=none;html=1;rounded=0;exitX=1;exitY=0.5;exitDx=0;exitDy=0;" edge="1" parent="1" source="DRDF23SqJuh-08uPQttx-7" target="DRDF23SqJuh-08uPQttx-17">
          <mxGeometry width="50" height="50" relative="1" as="geometry">
            <mxPoint x="-3080" y="530" as="sourcePoint" />
            <mxPoint x="-3030" y="530" as="targetPoint" />
          </mxGeometry>
        </mxCell>
        <mxCell id="DRDF23SqJuh-08uPQttx-17" value="Ricevute" style="ellipse;whiteSpace=wrap;html=1;fillColor=#dae8fc;strokeColor=#6c8ebf;" vertex="1" parent="1">
          <mxGeometry x="-3060" y="505" width="110" height="50" as="geometry" />
        </mxCell>
      </root>
    </mxGraphModel>
  </diagram>
</mxfile>
